<svg width="90" height="70" viewBox="0 0 90 70" fill="none" xmlns="http://www.w3.org/2000/svg">
<path d="M50.9163 36.8383C52.2446 39.2609 53 42.0422 53 45C53 54.3889 45.3888 62 36 62C26.6112 62 19 54.3889 19 45C19 41.6949 19.9432 38.6101 21.5751 36" stroke="#78A4BE" stroke-width="3"/>
<path d="M21 37L36.5 12L51 37" stroke="#78A4BE" stroke-width="3" stroke-linejoin="round"/>
<path d="M59.4231 17.2031C60.5083 17.1758 61.6155 17.4132 62.6482 17.9462C65.9263 19.6379 67.2123 23.6668 65.5205 26.9449C63.8287 30.223 59.7999 31.509 56.5218 29.8172C55.3678 29.2217 54.4607 28.3365 53.8434 27.2964" stroke="#78A4BE" stroke-width="3"/>
<path d="M54.089 27.6775L48.1532 17.761L59.4946 17.2031" stroke="#78A4BE" stroke-width="3" stroke-linejoin="round"/>
<path d="M43 36L29 50" stroke="#78A4BE" stroke-width="3" stroke-linejoin="round"/>
<path d="M29 36L43 50" stroke="#78A4BE" stroke-width="3" stroke-linejoin="round"/>
</svg>
