<svg width="101" height="70" viewBox="0 0 101 70" fill="none" xmlns="http://www.w3.org/2000/svg">
<path d="M45.3452 41.0286C39.8935 39.447 35.9091 34.4166 35.9091 28.4545V11H62.0909V30.6364M35.9091 15.3636H25V24.0909C25 29.5651 28.9076 32.8182 33.7273 32.8182H35.9091M66.5278 32.5671C70.2545 31.7074 73 28.6794 73 24.0909V15.3636H62.0909M44.6364 50.2727H33.7273V59H58.8182M58.8182 59C50.9858 59 44.6364 52.6506 44.6364 44.8182C44.6364 36.9858 50.9858 30.6364 58.8182 30.6364C66.6506 30.6364 73 36.9858 73 44.8182C73 52.6506 66.6506 59 58.8182 59ZM66.4545 39.3636L56.6364 49.1818L51.1818 43.7273M45.085 42.4707C42.231 43.9056 40.2727 46.8605 40.2727 50.2727" stroke="#78A4BE" stroke-width="3" stroke-linejoin="round"/>
</svg>
